# xmcd
#
# Track frame offsets:
#	150
#	23506
#	51443
#	79306
#	96538
#	113645
#	131001
#	148610
#	163143
#	184130
#	196870
#	221023
#	239108
#	259543
#	276401
#	296712
#
# Disc length: 4186 seconds
#
# Revision: 2
# Processed by: cddbd v1.5.2PL0 Copyright (c) Steve Scherf et al.
# Submitted via: EasyCDDAExtractor 16.0.9.1
#
DISCID=fc105810
DTITLE=Various Artist - Baila Latino 
DYEAR=1997
DGENRE=Latin
TTITLE0=La Sospechosa - La Tumbadora
TTITLE1=Picante Latino -  	El Meneaito (Menamix Remix)
TTITLE2=La Sospechosa -  	El Zancudo
TTITLE3=Los Chicos Feat. Humberto - Tic Tic Tac (Radio Edit)
TTITLE4=Los Trigueños - Pa'Alimentar El Corazon
TTITLE5=Patricia - El Talisman (Cut Mix)
TTITLE6=Los Trigueños - Dime Que Si
TTITLE7=Medano - Haceme El Amor
TTITLE8=Grupo Valor - La Bifurcada
TTITLE9=Carrilio - Samba De Janeiro (New Radio Version)
TTITLE10=Caros El Cumbero - Canta Rumbero (Extended Dance Mix)
TTITLE11=Los Primos Calleja - La Negra De Chocolate
TTITLE12=Barra Brava - La Hora De Bailar (Remix)
TTITLE13=Los Primos Calleja - Sacudelo Pa'Mi
TTITLE14=Marcelo - El Venao (Original Mix)
TTITLE15=Los Primos Calleja - La Fiesta Ya Empezo
EXTD=
EXTT0=
EXTT1=
EXTT2=
EXTT3=
EXTT4=
EXTT5=
EXTT6=
EXTT7=
EXTT8=
EXTT9=
EXTT10=
EXTT11=
EXTT12=
EXTT13=
EXTT14=
EXTT15=
PLAYORDER=
